<svg width="879" height="250" viewBox="0 0 879 250" fill="none" xmlns="http://www.w3.org/2000/svg">
<path d="M785.029 192.411C775.642 190.744 766.876 189.407 759.468 190.048C755.779 190.367 752.447 191.175 749.551 192.668C746.655 194.162 744.16 196.357 742.183 199.489C738.336 205.58 735.818 211.312 735.512 216.899C735.206 222.475 737.102 227.93 742.138 233.479C751.328 243.606 764.182 244.438 780.857 247.49C790.114 249.184 797.845 247.489 804.279 243.308C810.744 239.108 815.916 232.384 819.929 224.023C823.809 215.94 826.582 206.368 828.409 196.155C823.726 196.842 818.854 196.92 813.915 196.625C804.31 196.052 794.374 194.07 785.029 192.411ZM376.21 168.724C373.045 169.93 369.724 171.094 366.334 172.216C361.269 173.893 356.041 175.489 350.952 177.031C345.86 178.573 340.91 180.061 336.388 181.523C331.865 182.986 327.785 184.42 324.435 185.852C321.076 187.287 318.495 188.702 316.928 190.118C315.375 191.522 314.858 192.884 315.479 194.274C316.118 195.701 317.997 197.258 321.588 198.951C338.298 206.832 356.499 207.388 372.603 198.963C378.612 195.82 380.869 190.857 380.804 185.081C380.747 179.957 378.858 174.245 376.21 168.724ZM506.729 199.338L506.705 199.631L506.316 199.721L506.133 199.312L506.729 199.338ZM623.352 192.425L622.87 192.482L622.696 192.154L623.254 192.001L623.352 192.425ZM640.514 189.205C639.623 189.23 638.504 189.275 637.125 189.345C633.901 189.507 629.308 189.799 622.993 190.255C623.093 190.453 623.184 190.633 623.267 190.795C623.423 191.101 623.548 191.343 623.639 191.517C623.694 191.51 623.753 191.504 623.816 191.496C624.24 191.444 624.85 191.369 625.595 191.277C627.085 191.091 629.113 190.835 631.27 190.549C634.56 190.114 638.115 189.616 640.514 189.205ZM242.949 149.209C230.15 149.209 217.551 153.118 213.345 160.765C211.682 163.788 211.667 168.001 212.096 171.512C212.309 173.257 212.628 174.81 212.895 175.926C213.028 176.484 213.148 176.932 213.234 177.241C213.277 177.395 213.312 177.514 213.336 177.594C213.346 177.629 213.354 177.657 213.36 177.676C217.581 185.307 230.165 189.206 242.949 189.206C255.708 189.206 268.266 185.322 272.511 177.722V160.693C268.266 153.093 255.707 149.209 242.949 149.209ZM647.463 104.993C647.384 104.97 647.291 104.944 647.188 104.915C646.767 104.797 646.153 104.628 645.385 104.423C643.847 104.013 641.693 103.462 639.228 102.899C634.285 101.77 628.144 100.602 623.22 100.4C617.13 100.149 612.631 101.365 609.363 103.645C606.077 105.938 603.973 109.349 602.818 113.568C600.506 122.014 602.043 133.513 605.154 145.136C608.262 156.744 612.926 168.422 616.815 177.202C618.759 181.591 620.509 185.253 621.773 187.818C622.066 188.413 622.333 188.949 622.57 189.421C629.051 188.952 633.752 188.653 637.041 188.487C640.426 188.317 642.377 188.283 643.226 188.361C643.338 188.372 643.446 188.385 643.543 188.403C643.631 188.42 643.751 188.447 643.861 188.5C643.97 188.552 644.169 188.678 644.177 188.895C644.185 189.092 644.029 189.22 643.958 189.27C643.812 189.374 643.601 189.446 643.438 189.495C643.25 189.552 643.017 189.611 642.752 189.67C640.662 190.136 635.79 190.826 631.485 191.395C629.324 191.681 627.29 191.938 625.798 192.124C625.052 192.217 624.44 192.292 624.016 192.344C623.803 192.37 623.637 192.39 623.525 192.404C623.468 192.411 623.425 192.416 623.396 192.419C623.382 192.421 623.371 192.422 623.364 192.423C623.36 192.424 623.357 192.424 623.355 192.424H623.353L623.254 192.001L622.695 192.153C622.695 192.152 622.695 192.151 622.694 192.149C622.692 192.146 622.69 192.142 622.687 192.136C622.681 192.124 622.671 192.107 622.659 192.085C622.635 192.039 622.599 191.971 622.553 191.881C622.46 191.703 622.322 191.438 622.146 191.093C622.034 190.875 621.908 190.624 621.766 190.344C614.946 190.842 606.227 191.522 595.208 192.427C584.018 193.347 575.542 192.55 569.298 190.371C563.035 188.186 559.077 184.631 556.89 180.128C554.709 175.639 554.29 170.215 555.059 164.263C555.83 158.307 557.794 151.794 560.416 145.114C565.657 131.756 573.545 117.673 579.83 105.96C582.975 100.098 585.716 94.8344 587.533 90.5414C588.441 88.3951 589.115 86.5013 589.493 84.9029C589.872 83.2967 589.944 82.0238 589.689 81.1047C588.593 77.1634 586.745 75.3606 584.38 74.6951C581.949 74.0111 578.745 74.4502 574.654 75.4494C566.596 77.4177 555.553 81.4507 542.32 81.4507C539.378 81.4509 536.51 83.1179 533.749 86.3299C531.009 89.5167 528.487 94.0951 526.182 99.627C521.574 110.685 517.876 125.445 514.991 140.225C512.108 155.002 510.042 169.78 508.697 180.866C508.025 186.408 507.533 191.027 507.209 194.259C507.047 195.876 506.927 197.146 506.847 198.011C506.807 198.444 506.778 198.776 506.758 198.999C506.749 199.111 506.741 199.195 506.736 199.252C506.734 199.28 506.732 199.302 506.73 199.316C506.73 199.323 506.73 199.328 506.729 199.332C506.729 199.333 506.729 199.335 506.729 199.336L506.133 199.312L506.316 199.721H506.314C506.313 199.721 506.31 199.722 506.308 199.722C506.304 199.723 506.297 199.725 506.288 199.726C506.271 199.731 506.244 199.737 506.21 199.745C506.142 199.76 506.04 199.783 505.908 199.812C505.643 199.871 505.252 199.955 504.75 200.06C503.746 200.269 502.294 200.558 500.501 200.88C496.913 201.522 491.951 202.294 486.454 202.808C480.961 203.322 474.917 203.581 469.171 203.194C463.43 202.806 457.943 201.77 453.599 199.668C447.113 196.529 443.914 191.375 442.72 185.494C441.526 179.613 442.324 172.95 443.903 166.698C445.483 160.442 447.852 154.573 449.825 150.269C450.811 148.117 451.699 146.355 452.341 145.13C452.661 144.518 452.921 144.039 453.1 143.714C453.19 143.551 453.26 143.426 453.308 143.342C453.318 143.324 453.327 143.308 453.335 143.294V121.855C435.42 134.494 414.469 146.511 392.466 160.925C388.395 163.592 383.131 166.036 377.277 168.315C379.98 173.921 381.94 179.782 381.999 185.075C382.065 191.007 379.742 196.292 373.305 199.659C356.745 208.323 337.998 207.72 320.932 199.671C317.263 197.94 315.107 196.245 314.343 194.537C313.562 192.792 314.276 191.135 315.994 189.583C317.697 188.043 320.426 186.564 323.825 185.112C327.233 183.655 331.36 182.207 335.898 180.739C340.436 179.271 345.403 177.778 350.489 176.238C355.578 174.696 360.79 173.105 365.835 171.435C369.276 170.296 372.63 169.119 375.811 167.902C375.597 167.471 375.381 167.04 375.159 166.612C371.974 160.459 368.011 154.707 364.843 150.491C363.259 148.384 361.875 146.661 360.887 145.467C360.394 144.87 359.999 144.405 359.728 144.089C359.593 143.931 359.488 143.81 359.418 143.73L359.319 143.616C359.316 143.614 359.314 143.611 359.313 143.61L359.312 143.609L359.816 143.378C359.293 143.537 359.267 143.545 359.265 143.545C359.265 143.544 359.264 143.543 359.264 143.542C359.262 143.54 359.26 143.536 359.258 143.532C359.253 143.524 359.245 143.51 359.235 143.494C359.215 143.46 359.185 143.409 359.147 143.343C359.07 143.21 358.958 143.013 358.812 142.756C358.521 142.242 358.1 141.488 357.579 140.524C356.538 138.594 355.096 135.825 353.495 132.463C351.654 128.6 349.601 123.951 347.701 118.892C339.619 123.793 331.371 128.801 323.266 133.64C304.734 144.705 286.952 154.888 273.706 160.844V177.891L273.664 177.967C269.196 186.09 255.972 190.066 242.949 190.066C229.926 190.066 216.701 186.09 212.233 177.967L212.217 177.936L212.207 177.903L212.205 177.901C212.205 177.899 212.205 177.897 212.204 177.894C212.202 177.888 212.199 177.88 212.196 177.87C212.189 177.848 212.179 177.816 212.167 177.774C212.142 177.691 212.107 177.568 212.063 177.411C211.975 177.096 211.853 176.639 211.718 176.072C211.447 174.939 211.122 173.362 210.906 171.588C210.476 168.059 210.461 163.671 212.233 160.449C216.701 152.326 229.926 148.349 242.949 148.349C255 148.349 267.221 151.755 272.518 158.699C272.598 142.103 273.662 125.72 272.511 104.718C272.359 101.946 271.805 99.1644 270.972 96.3873C269.939 96.3902 268.902 96.3953 267.862 96.3983C263.419 96.4109 258.904 96.4393 254.365 96.6116C250.464 96.7597 246.551 97.0153 242.658 97.4549C250.38 113.146 245.342 131.579 227.541 143.69C204.085 159.648 168.357 159.648 144.902 143.69C120.071 126.796 120.071 97.6021 144.902 80.7082C153.428 74.9073 163.577 71.2172 174.168 69.6337C171.41 69.1969 168.609 68.7832 165.78 68.404C149.593 66.2346 132.546 65.1567 117.76 66.7762C102.978 68.3954 90.5386 72.6994 83.4157 81.2416C79.157 86.3491 78.5865 91.7582 79.7659 97.2827C80.9486 102.822 83.8789 108.437 86.5826 113.955C89.2735 119.448 91.7445 124.854 91.9015 129.889C92.0596 134.959 89.8718 139.658 83.2909 143.704C72.2186 150.512 57.4769 154.943 43.5283 155.455C29.5678 155.968 16.335 152.551 8.45469 143.608C3.49589 137.98 1 132.24 1 126.486C1.00004 120.731 3.49585 114.992 8.45469 109.364L9.46366 109.825C4.6069 115.337 2.19447 120.919 2.19443 126.486C2.19443 132.053 4.60683 137.635 9.46366 143.147C17.0539 151.762 29.8139 155.097 43.4676 154.596C57.1329 154.094 71.6275 149.745 82.5152 143.051C88.7931 139.191 90.8592 134.75 90.7083 129.908C90.5562 125.031 88.1554 119.751 85.4558 114.241C82.7688 108.757 79.7892 103.051 78.5855 97.4129C77.3786 91.7592 77.9463 86.1302 82.3916 80.799C89.7655 71.9556 102.602 67.5669 117.581 65.9262C132.556 64.2859 149.753 65.3811 165.998 67.5582C169.789 68.0662 173.53 68.6349 177.182 69.2406C194.846 67.278 213.418 71.0995 227.541 80.7082C234.257 85.2778 239.156 90.7475 242.239 96.6301C246.262 96.1681 250.296 95.9053 254.302 95.7532C258.872 95.5797 263.413 95.5508 267.857 95.5382C268.81 95.5355 269.758 95.5306 270.701 95.5281C269.553 91.9509 267.964 88.3826 266.179 84.8567C264.522 81.5856 262.705 78.3577 260.932 75.1924C259.161 72.0301 257.435 68.9293 255.965 65.9253C253.032 59.9274 251.095 54.2549 251.924 49.1694C252.758 44.0477 256.39 39.5652 264.431 35.9581C283.27 27.5075 305.057 25.1186 321.663 36.0051C330.787 41.9869 333.635 49.4334 332.786 57.3101C331.939 65.167 327.415 73.4644 321.79 81.2198C317.309 87.3974 311.333 91.0665 304.327 93.2367C297.344 95.4001 289.368 96.0642 280.906 96.2807C278.057 96.3536 275.145 96.3726 272.192 96.3831C273.008 99.143 273.553 101.915 273.705 104.683C274.882 126.179 273.743 142.893 273.708 159.827C286.807 153.869 304.261 143.87 322.505 132.978C330.739 128.061 339.136 122.961 347.359 117.975C346.081 114.503 344.882 110.852 343.88 107.14C341.316 97.6463 340.022 87.7178 341.957 79.3534C343.895 70.982 349.091 64.1071 359.58 60.8706C368.497 58.1192 380.844 58.1313 390.879 58.8086C395.912 59.1482 400.392 59.6575 403.615 60.0819C405.227 60.2942 406.525 60.4855 407.421 60.6237C407.869 60.6927 408.216 60.7479 408.452 60.7866C408.57 60.806 408.661 60.8217 408.722 60.832C408.752 60.8371 408.775 60.8411 408.791 60.8437C408.798 60.845 408.804 60.8456 408.808 60.8462C408.81 60.8465 408.812 60.8469 408.813 60.8471L408.814 60.8479L408.676 61.2662L409.241 61.4048C409.241 61.4055 409.24 61.4068 409.24 61.4082C409.238 61.411 409.235 61.4152 409.233 61.4208C409.227 61.4321 409.22 61.4495 409.209 61.472C409.188 61.517 409.156 61.5845 409.115 61.6727C409.032 61.8493 408.911 62.1106 408.753 62.4488C408.438 63.1261 407.981 64.1127 407.417 65.3483C406.287 67.8195 404.723 71.2878 402.985 75.2755C401.167 79.4482 399.159 84.1874 397.26 88.9472C397.837 88.6501 398.405 88.3611 398.962 88.0804C405.16 84.9593 410.206 82.8324 413.567 82.1983C415.223 81.886 416.702 81.8919 417.645 82.5401C418.581 83.1835 418.737 84.2895 418.392 85.6865C417.69 88.5213 414.754 93.2266 409.193 100.185C403.625 107.152 399.433 111.793 396.361 114.569C394.83 115.952 393.548 116.899 392.489 117.435C391.466 117.953 390.417 118.197 389.56 117.779C389.162 117.585 388.895 117.283 388.714 116.942C388.532 116.6 388.417 116.185 388.355 115.718C388.229 114.785 388.3 113.573 388.519 112.156C388.958 109.317 390.009 105.572 391.401 101.407C392.487 98.1613 393.784 94.6523 395.168 91.1058C389.984 93.8575 384.127 97.17 377.815 100.853C368.815 106.105 358.905 112.098 348.71 118.279C350.642 123.465 352.742 128.234 354.624 132.184C356.22 135.533 357.657 138.291 358.693 140.211C359.212 141.171 359.629 141.922 359.918 142.432C360.062 142.687 360.175 142.881 360.251 143.012C360.288 143.078 360.316 143.128 360.336 143.161C360.339 143.166 360.341 143.17 360.344 143.174C360.345 143.176 360.346 143.177 360.347 143.179C360.366 143.2 360.393 143.231 360.429 143.273C360.501 143.355 360.607 143.477 360.744 143.636C361.018 143.956 361.417 144.426 361.914 145.027C362.909 146.23 364.301 147.962 365.894 150.081C369.078 154.318 373.066 160.108 376.277 166.311C376.48 166.703 376.681 167.097 376.877 167.492C382.606 165.255 387.72 162.872 391.663 160.289C414.085 145.6 435.312 133.446 453.335 120.648V50.515C453.335 35.332 449.159 27.6858 447.056 22.4258C446.003 19.7936 445.431 17.677 446.267 15.5132C447.102 13.354 449.307 11.2221 453.533 8.48037C468.904 -1.49347 491.161 -1.49344 506.532 8.48037C510.82 11.2628 513.192 14.3018 514.264 17.5525C515.334 20.7939 515.104 24.221 514.25 27.7754C513.398 31.3267 511.914 35.0397 510.451 38.8449C508.985 42.6594 507.535 46.5762 506.723 50.5763C500.337 82.0639 480.798 102.29 454.529 121.009V143.463L454.483 143.542V143.544C454.483 143.545 454.481 143.547 454.48 143.55C454.477 143.555 454.473 143.562 454.467 143.572C454.455 143.593 454.438 143.624 454.415 143.665C454.368 143.747 454.299 143.87 454.21 144.03C454.033 144.352 453.776 144.825 453.458 145.433C452.821 146.648 451.939 148.399 450.958 150.539C448.997 154.819 446.645 160.648 445.078 166.852C443.51 173.061 442.735 179.62 443.902 185.369C445.068 191.118 448.163 196.001 454.265 198.955C458.381 200.946 463.649 201.957 469.282 202.337C474.91 202.717 480.859 202.464 486.3 201.955C491.739 201.446 496.655 200.682 500.211 200.045C501.989 199.727 503.426 199.441 504.417 199.234C504.913 199.131 505.297 199.047 505.557 198.99C505.559 198.99 505.56 198.989 505.562 198.988C505.563 198.974 505.565 198.96 505.566 198.945C505.586 198.72 505.615 198.388 505.655 197.954C505.735 197.087 505.856 195.815 506.018 194.197C506.342 190.961 506.834 186.338 507.507 180.791C508.853 169.697 510.921 154.902 513.808 140.106C516.695 125.314 520.405 110.502 525.039 99.38C527.355 93.8224 529.912 89.1594 532.734 85.8772C535.534 82.6206 538.711 80.5908 542.32 80.5907C555.291 80.5907 566.01 76.6523 574.271 74.6347C578.339 73.6409 581.934 73.0833 584.815 73.8938C587.762 74.7231 589.74 76.9058 590.86 80.9359C591.158 82.0096 591.057 83.4056 590.67 85.0465C590.28 86.6952 589.592 88.6281 588.676 90.7917C586.845 95.1188 584.088 100.411 580.944 106.271C574.648 118.004 566.788 132.04 561.566 145.348C558.955 152.001 557.01 158.458 556.249 164.342C555.488 170.231 555.915 175.517 558.016 179.844C560.111 184.158 563.871 187.523 569.818 189.598C575.785 191.679 584.011 192.482 595.073 191.573C605.931 190.681 614.562 190.007 621.346 189.51C621.134 189.088 620.9 188.619 620.647 188.106C619.38 185.534 617.627 181.862 615.678 177.463C611.781 168.667 607.103 156.953 603.982 145.298C600.865 133.656 599.288 122.02 601.647 113.402C602.827 109.09 605.006 105.487 608.532 103.027C612.077 100.554 616.92 99.2787 623.288 99.5405C628.369 99.7495 634.631 100.947 639.59 102.08C642.076 102.648 644.248 103.203 645.799 103.616C646.574 103.822 647.195 103.993 647.622 104.113C647.835 104.173 648.001 104.22 648.113 104.253C648.169 104.268 648.211 104.281 648.24 104.289C648.254 104.294 648.265 104.297 648.273 104.299C648.276 104.3 648.28 104.301 648.282 104.301L648.284 104.302L648.658 104.411V177.429C648.671 177.43 648.686 177.432 648.7 177.433C649.063 177.464 649.593 177.508 650.252 177.556C651.573 177.653 653.415 177.77 655.504 177.848C659.695 178.004 664.819 178 668.697 177.388C673.086 176.696 675.748 175.266 677.211 173.323C678.689 171.36 679 168.803 678.46 165.787C677.379 159.744 672.945 152.116 668.444 144.364C663.967 136.652 659.423 128.82 658.26 122.472C657.677 119.292 657.93 116.428 659.527 114.118C661.137 111.788 664.074 110.084 668.667 109.18C678.547 107.234 684.933 107.555 694.866 109.175C700.428 110.081 704.054 111.86 706.128 114.354C708.191 116.836 708.659 119.955 708.118 123.459C707.039 130.452 701.9 139.226 696.701 148.145C691.479 157.104 686.186 166.226 684.66 174.015C683.898 177.904 684.084 181.421 685.65 184.401C687.209 187.367 690.154 189.835 695.006 191.617C697.682 192.6 700.007 192.994 702.028 192.914C704.039 192.834 705.795 192.283 707.343 191.315C710.473 189.358 712.751 185.696 714.37 180.825C717.6 171.104 718.096 156.921 718.034 143.116C717.972 129.346 717.353 115.942 718.383 107.882C718.64 105.864 719.004 104.158 719.515 102.855C719.771 102.203 720.069 101.639 720.419 101.183C720.768 100.728 721.187 100.355 721.703 100.118C722.236 99.8727 722.836 99.7881 723.476 99.8756C724.098 99.9606 724.726 100.203 725.361 100.567C726.626 101.292 728.058 102.583 729.696 104.473C735.513 111.184 734.568 118.434 734.244 125.13C733.917 131.866 734.203 138.057 742.034 143.056C747.943 146.827 753.783 149.528 760.03 150.95C766.269 152.369 772.951 152.523 780.566 151.159C786.899 150.025 790.646 147.687 792.92 144.56C795.215 141.406 796.036 137.417 796.391 132.956C796.569 130.729 796.63 128.402 796.708 126.014C796.785 123.629 796.878 121.188 797.123 118.749C797.611 113.873 798.704 108.981 801.493 104.524C803.512 101.299 805.518 99.0488 807.51 97.6977C809.516 96.3366 811.577 95.8483 813.613 96.2874C815.589 96.7137 817.374 97.9828 818.982 99.8336C820.6 101.697 822.097 104.216 823.46 107.259C828.907 119.425 832.336 140.278 832.396 162.268C832.426 173.205 831.62 184.441 829.81 195.045C833.523 194.373 837.084 193.283 840.435 191.645C849.61 187.158 856.443 182.985 862.121 178.126C867.799 173.267 872.341 167.706 876.912 160.43L878 160.784C873.401 168.106 868.805 173.742 863.035 178.68C857.265 183.618 850.339 187.842 841.106 192.356C837.487 194.125 833.642 195.275 829.649 195.959C827.814 206.335 825.007 216.076 821.058 224.304C817.016 232.725 811.76 239.606 805.079 243.947C798.367 248.308 790.231 250.093 780.563 248.324C764.112 245.313 750.646 244.427 741.139 233.951C735.968 228.253 734.003 222.621 734.318 216.865C734.633 211.119 737.219 205.272 741.095 199.133C743.145 195.888 745.763 193.564 748.856 191.969C751.948 190.375 755.481 189.526 759.326 189.194C766.984 188.532 775.958 189.914 785.315 191.576C794.715 193.245 804.53 195.202 814.014 195.768C819.018 196.066 823.906 195.974 828.57 195.253C830.41 184.606 831.231 173.295 831.201 162.269C831.142 140.316 827.715 119.566 822.324 107.523C820.977 104.514 819.515 102.069 817.969 100.29C816.413 98.4982 814.827 97.4472 813.27 97.1114C811.773 96.7885 810.138 97.0962 808.329 98.3234C806.505 99.5608 804.575 101.692 802.582 104.877C799.876 109.201 798.799 113.978 798.315 118.811C798.073 121.227 797.978 123.65 797.901 126.034C797.823 128.415 797.762 130.761 797.584 133.005C797.226 137.486 796.398 141.633 793.978 144.959C791.538 148.314 787.502 150.802 780.855 151.993C773.047 153.391 766.139 153.241 759.671 151.769C753.211 150.299 747.227 147.519 741.242 143.699C732.962 138.414 732.724 131.842 733.05 125.1C733.379 118.317 734.266 111.371 728.682 104.929C727.063 103.06 725.718 101.871 724.617 101.24C724.07 100.926 723.617 100.77 723.254 100.721C722.909 100.674 722.619 100.717 722.346 100.842C722.057 100.975 721.757 101.216 721.464 101.598C721.173 101.978 720.905 102.475 720.664 103.089C720.182 104.318 719.828 105.963 719.572 107.961C718.55 115.967 719.166 129.286 719.228 143.112C719.291 156.903 718.8 171.189 715.532 181.025C713.901 185.932 711.552 189.821 708.126 191.964C706.397 193.045 704.393 193.682 702.093 193.773C699.804 193.864 697.268 193.414 694.464 192.384C689.363 190.51 686.204 187.883 684.534 184.705C682.87 181.54 682.7 177.862 683.477 173.895C685.029 165.973 690.397 156.739 695.6 147.812C700.826 138.846 705.876 130.205 706.932 123.364C707.458 119.953 706.978 117.051 705.104 114.796C703.24 112.555 699.937 110.883 694.602 110.014C684.799 108.415 678.622 108.11 668.983 110.009C664.655 110.861 662.029 112.429 660.596 114.501C659.15 116.592 658.877 119.259 659.445 122.359C660.583 128.568 665.045 136.281 669.545 144.032C674.021 151.742 678.537 159.493 679.644 165.677C680.198 168.774 679.912 171.542 678.262 173.733C676.597 175.944 673.598 177.496 668.953 178.229C664.91 178.867 659.652 178.864 655.442 178.707C653.329 178.628 651.466 178.51 650.131 178.412C649.463 178.363 648.926 178.319 648.556 178.287C648.371 178.271 648.228 178.258 648.13 178.249C648.082 178.245 648.045 178.241 648.02 178.238C648.007 178.237 647.997 178.236 647.99 178.236C647.987 178.236 647.985 178.235 647.983 178.235H647.981L647.463 178.185V104.993ZM177.14 70.1166C165.78 71.4117 154.812 75.1488 145.722 81.3332C121.39 97.8876 121.39 126.511 145.722 143.065C168.717 158.71 203.726 158.71 226.721 143.065C244.221 131.159 249.133 113.01 241.46 97.5977C236.7 98.1835 231.975 99.0571 227.349 100.37C221.282 102.093 213.62 104.495 207.47 106.469C204.396 107.456 201.7 108.335 199.775 108.967C198.812 109.283 198.042 109.538 197.512 109.713C197.499 109.717 197.485 109.721 197.472 109.726C206.651 116.51 206.446 127.668 196.854 134.255C187.509 140.672 173.125 140.672 163.781 134.255C153.978 127.523 153.978 116.015 163.781 109.283C173.027 102.933 187.205 102.867 196.555 109.082C196.678 109.041 196.832 108.991 197.013 108.931C197.543 108.755 198.315 108.501 199.279 108.184C201.207 107.551 203.905 106.672 206.983 105.684C213.137 103.709 220.819 101.3 226.912 99.5699C231.554 98.2519 236.285 97.3702 241.037 96.7762C238.023 91.0943 233.278 85.8112 226.797 81.3861C226.743 81.37 226.668 81.348 226.572 81.3197C226.355 81.2554 226.031 81.1602 225.607 81.0375C224.758 80.7922 223.509 80.4365 221.909 79.996C218.708 79.1149 214.101 77.8949 208.482 76.5388C199.918 74.4719 189.007 72.0923 177.14 70.1166ZM359.312 143.609L359.285 143.578L359.265 143.545L359.816 143.378L359.312 143.609ZM196.03 109.905C187.147 103.805 173.488 103.805 164.604 109.905C155.295 116.299 155.295 127.239 164.604 133.633C173.488 139.733 187.147 139.733 196.03 133.633C205.34 127.239 205.34 116.299 196.03 109.905ZM390.767 59.6645C380.756 58.9888 368.672 59.0008 360.05 61.661C350.073 64.7394 345.035 71.2861 343.135 79.4945C341.234 87.71 342.499 97.5204 345.052 106.976C346.011 110.528 347.151 114.025 348.369 117.362C358.419 111.269 368.189 105.363 377.064 100.185C383.886 96.2039 390.189 92.6472 395.695 89.7602C397.719 84.6393 399.893 79.4998 401.846 75.0185C403.586 71.0261 405.152 67.5537 406.283 65.0795C406.848 63.8424 407.305 62.8544 407.621 62.1759C407.731 61.9384 407.824 61.7387 407.898 61.5795C407.699 61.5475 407.456 61.5084 407.17 61.4644C406.285 61.3278 404.999 61.1382 403.401 60.9277C400.203 60.5066 395.757 60.0012 390.767 59.6645ZM416.82 83.1625C416.362 82.8473 415.458 82.7304 413.87 83.0298C410.745 83.6194 405.861 85.655 399.646 88.7851C398.702 89.2601 397.73 89.7597 396.731 90.2818C395.195 94.1773 393.751 98.0529 392.562 101.608C391.173 105.763 390.137 109.467 389.707 112.251C389.491 113.646 389.431 114.789 389.544 115.635C389.601 116.058 389.699 116.39 389.829 116.634C389.96 116.88 390.107 117.006 390.23 117.067C390.416 117.157 390.846 117.215 391.802 116.731C392.72 116.267 393.917 115.398 395.428 114.033C398.442 111.309 402.597 106.715 408.158 99.7555C413.727 92.7876 416.556 88.2029 417.216 85.5354C417.551 84.1815 417.286 83.4828 416.82 83.1625ZM320.858 36.6409C304.825 26.1298 283.689 28.3325 265.062 36.688C257.305 40.1677 253.899 44.4278 253.11 49.2702C252.315 54.1491 254.169 59.6634 257.092 65.6398C258.551 68.6228 260.268 71.7062 262.04 74.8707C263.811 78.0325 265.636 81.2753 267.301 84.5627C269.125 88.1652 270.759 91.8323 271.927 95.5239C274.964 95.5137 277.947 95.496 280.863 95.4214C289.286 95.2059 297.08 94.5449 303.855 92.4464C310.606 90.3548 316.376 86.825 320.731 80.8216C326.328 73.105 330.766 64.9289 331.595 57.2429C332.421 49.5769 329.658 42.4104 320.858 36.6409ZM224.198 79.7112C211.57 72.0151 195.814 68.7131 180.499 69.805C191.214 71.6755 201.022 73.831 208.862 75.7232C214.499 77.0836 219.122 78.3083 222.336 79.193C223.022 79.3818 223.644 79.5553 224.198 79.7112ZM409.452 60.958L409.241 61.4048L408.676 61.2662L408.814 60.8479L409.452 60.958ZM454.529 119.792C480.265 101.326 499.269 81.3772 505.542 50.4529C506.365 46.3934 507.834 42.4288 509.3 38.6148C510.77 34.7914 512.233 31.1275 513.072 27.6284C513.911 24.1325 514.119 20.8344 513.102 17.7508C512.087 14.6765 509.848 11.7896 505.733 9.11956C490.816 -0.559717 469.249 -0.559717 454.332 9.11956C450.154 11.8303 448.158 13.8261 447.417 15.7441C446.678 17.6574 447.156 19.5684 448.203 22.1881C450.301 27.4327 454.529 35.1922 454.529 50.515V119.792Z" fill="black"/>
<path d="M506.316 199.721L506.705 199.631L506.729 199.338L506.133 199.312M506.316 199.721L506.133 199.312M506.316 199.721H506.314C506.313 199.721 506.31 199.722 506.308 199.722C506.304 199.723 506.297 199.725 506.288 199.726C506.271 199.731 506.244 199.737 506.21 199.745C506.142 199.76 506.04 199.783 505.908 199.812C505.643 199.871 505.252 199.955 504.75 200.06C503.746 200.269 502.294 200.558 500.501 200.88C496.913 201.522 491.951 202.294 486.454 202.808C480.961 203.322 474.917 203.581 469.171 203.194C463.43 202.806 457.943 201.77 453.599 199.668C447.113 196.529 443.914 191.375 442.72 185.494C441.526 179.613 442.324 172.95 443.903 166.698C445.483 160.442 447.852 154.573 449.825 150.269C450.811 148.117 451.699 146.355 452.341 145.13C452.661 144.518 452.921 144.039 453.1 143.714C453.19 143.551 453.26 143.426 453.308 143.342C453.318 143.324 453.327 143.308 453.335 143.294V121.855C435.42 134.494 414.469 146.511 392.466 160.925C388.395 163.592 383.131 166.036 377.277 168.315C379.98 173.921 381.94 179.782 381.999 185.075C382.065 191.007 379.742 196.292 373.305 199.659C356.745 208.323 337.998 207.72 320.932 199.671C317.263 197.94 315.107 196.245 314.343 194.537C313.562 192.792 314.276 191.135 315.994 189.583C317.697 188.043 320.426 186.564 323.825 185.112C327.233 183.655 331.36 182.207 335.898 180.739C340.436 179.271 345.403 177.778 350.489 176.238C355.578 174.696 360.79 173.105 365.835 171.435C369.276 170.296 372.63 169.119 375.811 167.902C375.597 167.471 375.381 167.04 375.159 166.612C371.974 160.459 368.011 154.707 364.843 150.491C363.259 148.384 361.875 146.661 360.887 145.467C360.394 144.87 359.999 144.405 359.728 144.089C359.593 143.931 359.488 143.81 359.418 143.73L359.319 143.616C359.316 143.614 359.314 143.611 359.313 143.61L359.312 143.609M506.133 199.312L506.729 199.336C506.729 199.335 506.729 199.333 506.729 199.332C506.73 199.328 506.73 199.323 506.73 199.316C506.732 199.302 506.734 199.28 506.736 199.252C506.741 199.195 506.749 199.111 506.758 198.999C506.778 198.776 506.807 198.444 506.847 198.011C506.927 197.146 507.047 195.876 507.209 194.259C507.533 191.027 508.025 186.408 508.697 180.866C510.042 169.78 512.108 155.002 514.991 140.225C517.876 125.445 521.574 110.685 526.182 99.627C528.487 94.0951 531.009 89.5167 533.749 86.3299C536.51 83.1179 539.378 81.4509 542.32 81.4507C555.553 81.4507 566.596 77.4177 574.654 75.4494C578.745 74.4502 581.949 74.0111 584.38 74.6951C586.745 75.3606 588.593 77.1634 589.689 81.1047C589.944 82.0238 589.872 83.2967 589.493 84.9029C589.115 86.5013 588.441 88.3951 587.533 90.5414C585.716 94.8344 582.975 100.098 579.83 105.96C573.545 117.673 565.657 131.756 560.416 145.114C557.794 151.794 555.83 158.307 555.059 164.263C554.29 170.215 554.709 175.639 556.89 180.128C559.077 184.631 563.035 188.186 569.298 190.371C575.542 192.55 584.018 193.347 595.208 192.427C606.227 191.522 614.946 190.842 621.766 190.344C621.908 190.624 622.034 190.875 622.146 191.093C622.322 191.438 622.46 191.703 622.553 191.881C622.599 191.971 622.635 192.039 622.659 192.085C622.671 192.107 622.681 192.124 622.687 192.136C622.69 192.142 622.692 192.146 622.694 192.149C622.695 192.151 622.695 192.152 622.695 192.153L623.254 192.001M623.254 192.001L622.696 192.154L622.87 192.482L623.352 192.425L623.254 192.001ZM623.254 192.001L623.353 192.424H623.355C623.357 192.424 623.36 192.424 623.364 192.423C623.371 192.422 623.382 192.421 623.396 192.419C623.425 192.416 623.468 192.411 623.525 192.404C623.637 192.39 623.803 192.37 624.016 192.344C624.44 192.292 625.052 192.217 625.798 192.124C627.29 191.938 629.324 191.681 631.485 191.395C635.79 190.826 640.662 190.136 642.752 189.67C643.017 189.611 643.25 189.552 643.438 189.495C643.601 189.446 643.812 189.374 643.958 189.27C644.029 189.22 644.185 189.092 644.177 188.895C644.169 188.678 643.97 188.552 643.861 188.5C643.751 188.447 643.631 188.42 643.543 188.403C643.446 188.385 643.338 188.372 643.226 188.361C642.377 188.283 640.426 188.317 637.041 188.487C633.752 188.653 629.051 188.952 622.57 189.421C622.333 188.949 622.066 188.413 621.773 187.818C620.509 185.253 618.759 181.591 616.815 177.202C612.926 168.422 608.262 156.744 605.154 145.136C602.043 133.513 600.506 122.014 602.818 113.568C603.973 109.349 606.077 105.938 609.363 103.645C612.631 101.365 617.13 100.149 623.22 100.4C628.144 100.602 634.285 101.77 639.228 102.899C641.693 103.462 643.847 104.013 645.385 104.423C646.153 104.628 646.767 104.797 647.188 104.915C647.291 104.944 647.384 104.97 647.463 104.993V178.185L647.981 178.235H647.983C647.985 178.235 647.987 178.236 647.99 178.236C647.997 178.236 648.007 178.237 648.02 178.238C648.045 178.241 648.082 178.245 648.13 178.249C648.228 178.258 648.371 178.271 648.556 178.287C648.926 178.319 649.463 178.363 650.131 178.412C651.466 178.51 653.329 178.628 655.442 178.707C659.652 178.864 664.91 178.867 668.953 178.229C673.598 177.496 676.597 175.944 678.262 173.733C679.912 171.542 680.198 168.774 679.644 165.677C678.537 159.493 674.021 151.742 669.545 144.032C665.045 136.281 660.583 128.568 659.445 122.359C658.877 119.259 659.15 116.592 660.596 114.501C662.029 112.429 664.655 110.861 668.983 110.009C678.622 108.11 684.799 108.415 694.602 110.014C699.937 110.883 703.24 112.555 705.104 114.796C706.978 117.051 707.458 119.953 706.932 123.364C705.876 130.205 700.826 138.846 695.6 147.812C690.397 156.739 685.029 165.973 683.477 173.895C682.7 177.862 682.87 181.54 684.534 184.705C686.204 187.883 689.363 190.51 694.464 192.384C697.268 193.414 699.804 193.864 702.093 193.773C704.393 193.682 706.397 193.045 708.126 191.964C711.552 189.821 713.901 185.932 715.532 181.025C718.8 171.189 719.291 156.903 719.228 143.112C719.166 129.286 718.55 115.967 719.572 107.961C719.828 105.963 720.182 104.318 720.664 103.089C720.905 102.475 721.173 101.978 721.464 101.598C721.757 101.216 722.057 100.975 722.346 100.842C722.619 100.717 722.909 100.674 723.254 100.721C723.617 100.77 724.07 100.926 724.617 101.24C725.718 101.871 727.063 103.06 728.682 104.929C734.266 111.371 733.379 118.317 733.05 125.1C732.724 131.842 732.962 138.414 741.242 143.699C747.227 147.519 753.211 150.299 759.671 151.769C766.139 153.241 773.047 153.391 780.855 151.993C787.502 150.802 791.538 148.314 793.978 144.959C796.398 141.633 797.226 137.486 797.584 133.005C797.762 130.761 797.823 128.415 797.901 126.034C797.978 123.65 798.073 121.227 798.315 118.811C798.799 113.978 799.876 109.201 802.582 104.877C804.575 101.692 806.505 99.5608 808.329 98.3234C810.138 97.0962 811.773 96.7885 813.27 97.1114C814.827 97.4472 816.413 98.4982 817.969 100.29C819.515 102.069 820.977 104.514 822.324 107.523C827.715 119.566 831.142 140.316 831.201 162.269C831.231 173.295 830.41 184.606 828.57 195.253C823.906 195.974 819.018 196.066 814.014 195.768C804.53 195.202 794.715 193.245 785.315 191.576C775.958 189.914 766.984 188.532 759.326 189.194C755.481 189.526 751.948 190.375 748.856 191.969C745.763 193.564 743.145 195.888 741.095 199.133C737.219 205.272 734.633 211.119 734.318 216.865C734.003 222.621 735.968 228.253 741.139 233.951C750.646 244.427 764.112 245.313 780.563 248.324C790.231 250.093 798.367 248.308 805.079 243.947C811.76 239.606 817.016 232.725 821.058 224.304C825.007 216.076 827.814 206.335 829.649 195.959C833.642 195.275 837.487 194.125 841.106 192.356C850.339 187.842 857.265 183.618 863.035 178.68C868.805 173.742 873.401 168.106 878 160.784L876.912 160.43C872.341 167.706 867.799 173.267 862.121 178.126C856.443 182.985 849.61 187.158 840.435 191.645C837.084 193.283 833.523 194.373 829.81 195.045C831.62 184.441 832.426 173.205 832.396 162.268C832.336 140.278 828.907 119.425 823.46 107.259C822.097 104.216 820.6 101.697 818.982 99.8336C817.374 97.9828 815.589 96.7137 813.613 96.2874C811.577 95.8483 809.516 96.3366 807.51 97.6977C805.518 99.0488 803.512 101.299 801.493 104.524C798.704 108.981 797.611 113.873 797.123 118.749C796.878 121.188 796.785 123.629 796.708 126.014C796.63 128.402 796.569 130.729 796.391 132.956C796.036 137.417 795.215 141.406 792.92 144.56C790.646 147.687 786.899 150.025 780.566 151.159C772.951 152.523 766.269 152.369 760.03 150.95C753.783 149.528 747.943 146.827 742.034 143.056C734.203 138.057 733.917 131.866 734.244 125.13C734.568 118.434 735.513 111.184 729.696 104.473C728.058 102.583 726.626 101.292 725.361 100.567C724.726 100.203 724.098 99.9606 723.476 99.8756C722.836 99.7881 722.236 99.8727 721.703 100.118C721.187 100.355 720.768 100.728 720.419 101.183C720.069 101.639 719.771 102.203 719.515 102.855C719.004 104.158 718.64 105.864 718.383 107.882C717.353 115.942 717.972 129.346 718.034 143.116C718.096 156.921 717.6 171.104 714.37 180.825C712.751 185.696 710.473 189.358 707.343 191.315C705.795 192.283 704.039 192.834 702.028 192.914C700.007 192.994 697.682 192.6 695.006 191.617C690.154 189.835 687.209 187.367 685.65 184.401C684.084 181.421 683.898 177.904 684.66 174.015C686.186 166.226 691.479 157.104 696.701 148.145C701.9 139.226 707.039 130.452 708.118 123.459C708.659 119.955 708.191 116.836 706.128 114.354C704.054 111.86 700.428 110.081 694.866 109.175C684.933 107.555 678.547 107.234 668.667 109.18C664.074 110.084 661.137 111.788 659.527 114.118C657.93 116.428 657.677 119.292 658.26 122.472C659.423 128.82 663.967 136.652 668.444 144.364C672.945 152.116 677.379 159.744 678.46 165.787C679 168.803 678.689 171.36 677.211 173.323C675.748 175.266 673.086 176.696 668.697 177.388C664.819 178 659.695 178.004 655.504 177.848C653.415 177.77 651.573 177.653 650.252 177.556C649.593 177.508 649.063 177.464 648.7 177.433C648.686 177.432 648.671 177.43 648.658 177.429V104.411L648.284 104.302L648.282 104.301C648.28 104.301 648.276 104.3 648.273 104.299C648.265 104.297 648.254 104.294 648.24 104.289C648.211 104.281 648.169 104.268 648.113 104.253C648.001 104.22 647.835 104.173 647.622 104.113C647.195 103.993 646.574 103.822 645.799 103.616C644.248 103.203 642.076 102.648 639.59 102.08C634.631 100.947 628.369 99.7495 623.288 99.5405C616.92 99.2787 612.077 100.554 608.532 103.027C605.006 105.487 602.827 109.09 601.647 113.402C599.288 122.02 600.865 133.656 603.982 145.298C607.103 156.953 611.781 168.667 615.678 177.463C617.627 181.862 619.38 185.534 620.647 188.106C620.9 188.619 621.134 189.088 621.346 189.51C614.562 190.007 605.931 190.681 595.073 191.573C584.011 192.482 575.785 191.679 569.818 189.598C563.871 187.523 560.111 184.158 558.016 179.844C555.915 175.517 555.488 170.231 556.249 164.342C557.01 158.458 558.955 152.001 561.566 145.348C566.788 132.04 574.648 118.004 580.944 106.271C584.088 100.411 586.845 95.1188 588.676 90.7917C589.592 88.6281 590.28 86.6952 590.67 85.0465C591.057 83.4056 591.158 82.0096 590.86 80.9359C589.74 76.9058 587.762 74.7231 584.815 73.8938C581.934 73.0833 578.339 73.6409 574.271 74.6347C566.01 76.6523 555.291 80.5907 542.32 80.5907C538.711 80.5908 535.534 82.6206 532.734 85.8772C529.912 89.1594 527.355 93.8224 525.039 99.38C520.405 110.502 516.695 125.314 513.808 140.106C510.921 154.902 508.853 169.697 507.507 180.791C506.834 186.338 506.342 190.961 506.018 194.197C505.856 195.815 505.735 197.087 505.655 197.954C505.615 198.388 505.586 198.72 505.566 198.945C505.565 198.96 505.563 198.974 505.562 198.988C505.56 198.989 505.559 198.99 505.557 198.99C505.297 199.047 504.913 199.131 504.417 199.234C503.426 199.441 501.989 199.727 500.211 200.045C496.655 200.682 491.739 201.446 486.3 201.955C480.859 202.464 474.91 202.717 469.282 202.337C463.649 201.957 458.381 200.946 454.265 198.955C448.163 196.001 445.068 191.118 443.902 185.369C442.735 179.62 443.51 173.061 445.078 166.852C446.645 160.648 448.997 154.819 450.958 150.539C451.939 148.399 452.821 146.648 453.458 145.433C453.776 144.825 454.033 144.352 454.21 144.03C454.299 143.87 454.368 143.747 454.415 143.665C454.438 143.624 454.455 143.593 454.467 143.572C454.473 143.562 454.477 143.555 454.48 143.55C454.481 143.547 454.483 143.545 454.483 143.544V143.542L454.529 143.463V121.009C480.798 102.29 500.337 82.0639 506.723 50.5763C507.535 46.5762 508.985 42.6594 510.451 38.8449C511.914 35.0397 513.398 31.3267 514.25 27.7754C515.104 24.221 515.334 20.7939 514.264 17.5525C513.192 14.3018 510.82 11.2628 506.532 8.48037C491.161 -1.49344 468.904 -1.49347 453.533 8.48037C449.307 11.2221 447.102 13.354 446.267 15.5132C445.431 17.677 446.003 19.7936 447.056 22.4258C449.159 27.6858 453.335 35.332 453.335 50.515V120.648C435.312 133.446 414.085 145.6 391.663 160.289C387.72 162.872 382.606 165.255 376.877 167.492C376.681 167.097 376.48 166.703 376.277 166.311C373.066 160.108 369.078 154.318 365.894 150.081C364.301 147.962 362.909 146.23 361.914 145.027C361.417 144.426 361.018 143.956 360.744 143.636C360.607 143.477 360.501 143.355 360.429 143.273C360.393 143.231 360.366 143.2 360.347 143.179C360.346 143.177 360.345 143.176 360.344 143.174C360.341 143.17 360.339 143.166 360.336 143.161C360.316 143.128 360.288 143.078 360.251 143.012C360.175 142.881 360.062 142.687 359.918 142.432C359.629 141.922 359.212 141.171 358.693 140.211C357.657 138.291 356.22 135.533 354.624 132.184C352.742 128.234 350.642 123.465 348.71 118.279C358.905 112.098 368.815 106.105 377.815 100.853C384.127 97.17 389.984 93.8575 395.168 91.1058C393.784 94.6523 392.487 98.1613 391.401 101.407C390.009 105.572 388.958 109.317 388.519 112.156C388.3 113.573 388.229 114.785 388.355 115.718C388.417 116.185 388.532 116.6 388.714 116.942C388.895 117.283 389.162 117.585 389.56 117.779C390.417 118.197 391.466 117.953 392.489 117.435C393.548 116.899 394.83 115.952 396.361 114.569C399.433 111.793 403.625 107.152 409.193 100.185C414.754 93.2266 417.69 88.5213 418.392 85.6865C418.737 84.2895 418.581 83.1835 417.645 82.5401C416.702 81.8919 415.223 81.886 413.567 82.1983C410.206 82.8324 405.16 84.9593 398.962 88.0804C398.405 88.3611 397.837 88.6501 397.26 88.9472C399.159 84.1874 401.167 79.4482 402.985 75.2755C404.723 71.2878 406.287 67.8195 407.417 65.3483C407.981 64.1127 408.438 63.1261 408.753 62.4488C408.911 62.1106 409.032 61.8493 409.115 61.6727C409.156 61.5845 409.188 61.517 409.209 61.472C409.22 61.4495 409.227 61.4321 409.233 61.4208C409.235 61.4152 409.238 61.411 409.24 61.4082C409.24 61.4068 409.241 61.4055 409.241 61.4048M359.312 143.609L359.816 143.378M359.312 143.609L359.285 143.578L359.265 143.545M359.816 143.378C359.293 143.537 359.267 143.545 359.265 143.545M359.816 143.378L359.265 143.545M359.265 143.545C359.265 143.544 359.264 143.543 359.264 143.542C359.262 143.54 359.26 143.536 359.258 143.532C359.253 143.524 359.245 143.51 359.235 143.494C359.215 143.46 359.185 143.409 359.147 143.343C359.07 143.21 358.958 143.013 358.812 142.756C358.521 142.242 358.1 141.488 357.579 140.524C356.538 138.594 355.096 135.825 353.495 132.463C351.654 128.6 349.601 123.951 347.701 118.892C339.619 123.793 331.371 128.801 323.266 133.64C304.734 144.705 286.952 154.888 273.706 160.844V177.891L273.664 177.967C269.196 186.09 255.972 190.066 242.949 190.066C229.926 190.066 216.701 186.09 212.233 177.967L212.217 177.936L212.207 177.903L212.205 177.901C212.205 177.899 212.205 177.897 212.204 177.894C212.202 177.888 212.199 177.88 212.196 177.87C212.189 177.848 212.179 177.816 212.167 177.774C212.142 177.691 212.107 177.568 212.063 177.411C211.975 177.096 211.853 176.639 211.718 176.072C211.447 174.939 211.122 173.362 210.906 171.588C210.476 168.059 210.461 163.671 212.233 160.449C216.701 152.326 229.926 148.349 242.949 148.349C255 148.349 267.221 151.755 272.518 158.699C272.598 142.103 273.662 125.72 272.511 104.718C272.359 101.946 271.805 99.1644 270.972 96.3873C269.939 96.3902 268.902 96.3953 267.862 96.3983C263.419 96.4109 258.904 96.4393 254.365 96.6116C250.464 96.7597 246.551 97.0153 242.658 97.4549C250.38 113.146 245.342 131.579 227.541 143.69C204.085 159.648 168.357 159.648 144.902 143.69C120.071 126.796 120.071 97.6021 144.902 80.7082C153.428 74.9073 163.577 71.2172 174.168 69.6337C171.41 69.1969 168.609 68.7832 165.78 68.404C149.593 66.2346 132.546 65.1567 117.76 66.7762C102.978 68.3954 90.5386 72.6994 83.4157 81.2416C79.157 86.3491 78.5865 91.7582 79.7659 97.2827C80.9486 102.822 83.8789 108.437 86.5826 113.955C89.2735 119.448 91.7445 124.854 91.9015 129.889C92.0596 134.959 89.8718 139.658 83.2909 143.704C72.2186 150.512 57.4769 154.943 43.5283 155.455C29.5678 155.968 16.335 152.551 8.45469 143.608C3.49589 137.98 1 132.24 1 126.486C1.00004 120.731 3.49585 114.992 8.45469 109.364L9.46366 109.825C4.6069 115.337 2.19447 120.919 2.19443 126.486C2.19443 132.053 4.60683 137.635 9.46366 143.147C17.0539 151.762 29.8139 155.097 43.4676 154.596C57.1329 154.094 71.6275 149.745 82.5152 143.051C88.7931 139.191 90.8592 134.75 90.7083 129.908C90.5562 125.031 88.1554 119.751 85.4558 114.241C82.7688 108.757 79.7892 103.051 78.5855 97.4129C77.3786 91.7592 77.9463 86.1302 82.3916 80.799C89.7655 71.9556 102.602 67.5669 117.581 65.9262C132.556 64.2859 149.753 65.3811 165.998 67.5582C169.789 68.0662 173.53 68.6349 177.182 69.2406C194.846 67.278 213.418 71.0995 227.541 80.7082C234.257 85.2778 239.156 90.7475 242.239 96.6301C246.262 96.1681 250.296 95.9053 254.302 95.7532C258.872 95.5797 263.413 95.5508 267.857 95.5382C268.81 95.5355 269.758 95.5306 270.701 95.5281C269.553 91.9509 267.964 88.3826 266.179 84.8567C264.522 81.5856 262.705 78.3577 260.932 75.1924C259.161 72.0301 257.435 68.9293 255.965 65.9253C253.032 59.9274 251.095 54.2549 251.924 49.1694C252.758 44.0477 256.39 39.5652 264.431 35.9581C283.27 27.5075 305.057 25.1186 321.663 36.0051C330.787 41.9869 333.635 49.4334 332.786 57.3101C331.939 65.167 327.415 73.4644 321.79 81.2198C317.309 87.3974 311.333 91.0665 304.327 93.2367C297.344 95.4001 289.368 96.0642 280.906 96.2807C278.057 96.3536 275.145 96.3726 272.192 96.3831C273.008 99.143 273.553 101.915 273.705 104.683C274.882 126.179 273.743 142.893 273.708 159.827C286.807 153.869 304.261 143.87 322.505 132.978C330.739 128.061 339.136 122.961 347.359 117.975C346.081 114.503 344.882 110.852 343.88 107.14C341.316 97.6463 340.022 87.7178 341.957 79.3534C343.895 70.982 349.091 64.1071 359.58 60.8706C368.497 58.1192 380.844 58.1313 390.879 58.8086C395.912 59.1482 400.392 59.6575 403.615 60.0819C405.227 60.2942 406.525 60.4855 407.421 60.6237C407.869 60.6927 408.216 60.7479 408.452 60.7866C408.57 60.806 408.661 60.8217 408.722 60.832C408.752 60.8371 408.775 60.8411 408.791 60.8437C408.798 60.845 408.804 60.8456 408.808 60.8462C408.81 60.8465 408.812 60.8469 408.813 60.8471L408.814 60.8479M408.814 60.8479L408.676 61.2662L409.241 61.4048M408.814 60.8479L409.452 60.958L409.241 61.4048M785.029 192.411C775.642 190.744 766.876 189.407 759.468 190.048C755.779 190.367 752.447 191.175 749.551 192.668C746.655 194.162 744.16 196.357 742.183 199.489C738.336 205.58 735.818 211.312 735.512 216.899C735.206 222.475 737.102 227.93 742.138 233.479C751.328 243.606 764.182 244.438 780.857 247.49C790.114 249.184 797.845 247.489 804.279 243.308C810.744 239.108 815.916 232.384 819.929 224.023C823.809 215.94 826.582 206.368 828.409 196.155C823.726 196.842 818.854 196.92 813.915 196.625C804.31 196.052 794.374 194.07 785.029 192.411ZM376.21 168.724C373.045 169.93 369.724 171.094 366.334 172.216C361.269 173.893 356.041 175.489 350.952 177.031C345.86 178.573 340.91 180.061 336.388 181.523C331.865 182.986 327.785 184.42 324.435 185.852C321.076 187.287 318.495 188.702 316.928 190.118C315.375 191.522 314.858 192.884 315.479 194.274C316.118 195.701 317.997 197.258 321.588 198.951C338.298 206.832 356.499 207.388 372.603 198.963C378.612 195.82 380.869 190.857 380.804 185.081C380.747 179.957 378.858 174.245 376.21 168.724ZM640.514 189.205C639.623 189.23 638.504 189.275 637.125 189.345C633.901 189.507 629.308 189.799 622.993 190.255C623.093 190.453 623.184 190.633 623.267 190.795C623.423 191.101 623.548 191.343 623.639 191.517C623.694 191.51 623.753 191.504 623.816 191.496C624.24 191.444 624.85 191.369 625.595 191.277C627.085 191.091 629.113 190.835 631.27 190.549C634.56 190.114 638.115 189.616 640.514 189.205ZM242.949 149.209C230.15 149.209 217.551 153.118 213.345 160.765C211.682 163.788 211.667 168.001 212.096 171.512C212.309 173.257 212.628 174.81 212.895 175.926C213.028 176.484 213.148 176.932 213.234 177.241C213.277 177.395 213.312 177.514 213.336 177.594C213.346 177.629 213.354 177.657 213.36 177.676C217.581 185.307 230.165 189.206 242.949 189.206C255.708 189.206 268.266 185.322 272.511 177.722V160.693C268.266 153.093 255.707 149.209 242.949 149.209ZM177.14 70.1166C165.78 71.4117 154.812 75.1488 145.722 81.3332C121.39 97.8876 121.39 126.511 145.722 143.065C168.717 158.71 203.726 158.71 226.721 143.065C244.221 131.159 249.133 113.01 241.46 97.5977C236.7 98.1835 231.975 99.0571 227.349 100.37C221.282 102.093 213.62 104.495 207.47 106.469C204.396 107.456 201.7 108.335 199.775 108.967C198.812 109.283 198.042 109.538 197.512 109.713C197.499 109.717 197.485 109.721 197.472 109.726C206.651 116.51 206.446 127.668 196.854 134.255C187.509 140.672 173.125 140.672 163.781 134.255C153.978 127.523 153.978 116.015 163.781 109.283C173.027 102.933 187.205 102.867 196.555 109.082C196.678 109.041 196.832 108.991 197.013 108.931C197.543 108.755 198.315 108.501 199.279 108.184C201.207 107.551 203.905 106.672 206.983 105.684C213.137 103.709 220.819 101.3 226.912 99.5699C231.554 98.2519 236.285 97.3702 241.037 96.7762C238.023 91.0943 233.278 85.8112 226.797 81.3861C226.743 81.37 226.668 81.348 226.572 81.3197C226.355 81.2554 226.031 81.1602 225.607 81.0375C224.758 80.7922 223.509 80.4365 221.909 79.996C218.708 79.1149 214.101 77.8949 208.482 76.5388C199.918 74.4719 189.007 72.0923 177.14 70.1166ZM196.03 109.905C187.147 103.805 173.488 103.805 164.604 109.905C155.295 116.299 155.295 127.239 164.604 133.633C173.488 139.733 187.147 139.733 196.03 133.633C205.34 127.239 205.34 116.299 196.03 109.905ZM390.767 59.6645C380.756 58.9888 368.672 59.0008 360.05 61.661C350.073 64.7394 345.035 71.2861 343.135 79.4945C341.234 87.71 342.499 97.5204 345.052 106.976C346.011 110.528 347.151 114.025 348.369 117.362C358.419 111.269 368.189 105.363 377.064 100.185C383.886 96.2039 390.189 92.6472 395.695 89.7602C397.719 84.6393 399.893 79.4998 401.846 75.0185C403.586 71.0261 405.152 67.5537 406.283 65.0795C406.848 63.8424 407.305 62.8544 407.621 62.1759C407.731 61.9384 407.824 61.7387 407.898 61.5795C407.699 61.5475 407.456 61.5084 407.17 61.4644C406.285 61.3278 404.999 61.1382 403.401 60.9277C400.203 60.5066 395.757 60.0012 390.767 59.6645ZM416.82 83.1625C416.362 82.8473 415.458 82.7304 413.87 83.0298C410.745 83.6194 405.861 85.655 399.646 88.7851C398.702 89.2601 397.73 89.7597 396.731 90.2818C395.195 94.1773 393.751 98.0529 392.562 101.608C391.173 105.763 390.137 109.467 389.707 112.251C389.491 113.646 389.431 114.789 389.544 115.635C389.601 116.058 389.699 116.39 389.829 116.634C389.96 116.88 390.107 117.006 390.23 117.067C390.416 117.157 390.846 117.215 391.802 116.731C392.72 116.267 393.917 115.398 395.428 114.033C398.442 111.309 402.597 106.715 408.158 99.7555C413.727 92.7876 416.556 88.2029 417.216 85.5354C417.551 84.1815 417.286 83.4828 416.82 83.1625ZM320.858 36.6409C304.825 26.1298 283.689 28.3325 265.062 36.688C257.305 40.1677 253.899 44.4278 253.11 49.2702C252.315 54.1491 254.169 59.6634 257.092 65.6398C258.551 68.6228 260.268 71.7062 262.04 74.8707C263.811 78.0325 265.636 81.2753 267.301 84.5627C269.125 88.1652 270.759 91.8323 271.927 95.5239C274.964 95.5137 277.947 95.496 280.863 95.4214C289.286 95.2059 297.08 94.5449 303.855 92.4464C310.606 90.3548 316.376 86.825 320.731 80.8216C326.328 73.105 330.766 64.9289 331.595 57.2429C332.421 49.5769 329.658 42.4104 320.858 36.6409ZM224.198 79.7112C211.57 72.0151 195.814 68.7131 180.499 69.805C191.214 71.6755 201.022 73.831 208.862 75.7232C214.499 77.0836 219.122 78.3083 222.336 79.193C223.022 79.3818 223.644 79.5553 224.198 79.7112ZM454.529 119.792C480.265 101.326 499.269 81.3772 505.542 50.4529C506.365 46.3934 507.834 42.4288 509.3 38.6148C510.77 34.7914 512.233 31.1275 513.072 27.6284C513.911 24.1325 514.119 20.8344 513.102 17.7508C512.087 14.6765 509.848 11.7896 505.733 9.11956C490.816 -0.559717 469.249 -0.559717 454.332 9.11956C450.154 11.8303 448.158 13.8261 447.417 15.7441C446.678 17.6574 447.156 19.5684 448.203 22.1881C450.301 27.4327 454.529 35.1922 454.529 50.515V119.792Z" stroke="black"/>
</svg>
